<svg id="Layer_1" enable-background="new 0 0 512 512" height="512" viewBox="0 0 512 512" width="512" xmlns="http://www.w3.org/2000/svg"><g><g><path clip-rule="evenodd" d="m176.057 39.928v68.627h68.806v-44.447-24.18c0-5.131-4.199-9.354-9.363-9.354h-50.108c-5.136 0-9.335 4.224-9.335 9.354z" fill="#eff6ff" fill-rule="evenodd"/></g><g><path clip-rule="evenodd" d="m219.781 39.928v58.621h14.158 10.924v-34.441-24.18c0-5.131-4.199-9.354-9.363-9.354h-25.054c5.136 0 9.335 4.224 9.335 9.354z" fill="#d9eeff" fill-rule="evenodd"/></g><g><path clip-rule="evenodd" d="m141.64 147.532h137.612v-36.397c0-6.917-5.646-12.586-12.57-12.586h-21.819-68.806-21.848c-6.895 0-12.57 5.669-12.57 12.586v36.397z" fill="#7e707d" fill-rule="evenodd"/></g><g><path clip-rule="evenodd" d="m246.537 111.135v26.391h5.675 27.04v-26.391c0-6.917-5.646-12.586-12.57-12.586h-21.819-10.924c6.924 0 12.598 5.669 12.598 12.586z" fill="#6a5c69" fill-rule="evenodd"/></g><g><path clip-rule="evenodd" d="m112.5 160.997v71.972s27.749-25.71 71.275-16.356c43.525 9.326 91.59 20.353 124.646-12.671v-42.945c0-12.898-10.583-23.471-23.493-23.471h-5.675-137.613-5.675c-12.91 0-23.465 10.573-23.465 23.471z" fill="#eff6ff" fill-rule="evenodd"/></g><g><path clip-rule="evenodd" d="m275.677 160.997v51.874c11.889-3.26 22.983-9.156 32.743-18.907v-32.967c0-12.898-10.583-23.471-23.493-23.471h-5.675-27.04c12.91 0 23.465 10.573 23.465 23.471z" fill="#d9eeff" fill-rule="evenodd"/></g><g><path clip-rule="evenodd" d="m112.5 222.962v258.067c0 12.898 10.555 23.471 23.465 23.471h148.962c12.91 0 23.493-10.573 23.493-23.471v-287.065c-33.055 32.995-81.12 21.969-124.646 12.643-43.525-9.327-71.274 16.355-71.274 16.355z" fill="#a1d4ff" fill-rule="evenodd"/></g><g><path clip-rule="evenodd" d="m168.708 306.358v29.31c0 2.835 2.298 5.159 5.136 5.159h16.797v16.753c0 2.835 2.298 5.159 5.136 5.159h29.338c2.837 0 5.164-2.324 5.164-5.159v-16.753h16.769c2.837 0 5.164-2.324 5.164-5.159v-29.31c0-2.835-2.327-5.159-5.164-5.159h-16.769v-16.753c0-2.835-2.327-5.131-5.164-5.131h-29.338c-2.837 0-5.136 2.296-5.136 5.131v16.753h-16.797c-2.837 0-5.136 2.324-5.136 5.159z" fill="#fe8d94" fill-rule="evenodd"/></g><g><path clip-rule="evenodd" d="m275.677 212.871v268.158c0 12.898-10.555 23.471-23.465 23.471h32.715c12.91 0 23.493-10.573 23.493-23.471v-287.065c-9.76 9.751-20.854 15.647-32.743 18.907z" fill="#86beec" fill-rule="evenodd"/></g><g><path d="m326.747 93.218c-2.929-2.928-7.664-2.915-10.592.014-2.929 2.929-2.915 7.692.014 10.621 1.464 1.464 3.384 2.197 5.303 2.197s3.839-.732 5.303-2.197c2.929-2.929 2.929-7.678 0-10.606z"/><path d="m360.486 8.192h-.028c-4.142 0-7.486 3.358-7.486 7.5s3.372 7.5 7.514 7.5 7.5-3.358 7.5-7.5-3.358-7.5-7.5-7.5z"/><path d="m399.5 15c4.142 0 7.5-3.358 7.5-7.5s-3.358-7.5-7.5-7.5h-.028c-4.142 0-7.486 3.358-7.486 7.5s3.372 7.5 7.514 7.5z"/><path d="m321.586 16.384h-.114c-4.142 0-7.5 3.358-7.5 7.5s3.358 7.5 7.5 7.5h.114c4.142 0 7.5-3.358 7.5-7.5s-3.358-7.5-7.5-7.5z"/><path d="m301.525 68.66c4.142 0 7.5-3.358 7.5-7.5v-.028c0-4.142-3.358-7.486-7.5-7.486s-7.5 3.372-7.5 7.514 3.358 7.5 7.5 7.5z"/><path d="m360.458 99.213c-4.142 0-7.5 3.358-7.5 7.5v.028c0 4.142 3.358 7.486 7.5 7.486s7.5-3.372 7.5-7.514-3.358-7.5-7.5-7.5z"/><path d="m399.5 107.405h-.028c-4.142 0-7.486 3.358-7.486 7.5s3.372 7.5 7.514 7.5 7.5-3.358 7.5-7.5-3.358-7.5-7.5-7.5z"/><path d="m354.083 61.104c0-4.142-3.358-7.486-7.5-7.486s-7.5 3.372-7.5 7.514 3.358 7.5 7.5 7.5 7.5-3.358 7.5-7.5z"/><path d="m399.155 61.104c0-4.142-3.372-7.5-7.514-7.5s-7.5 3.358-7.5 7.5 3.358 7.5 7.5 7.5h.028c4.142 0 7.486-3.358 7.486-7.5z"/><path d="m225.115 271.815h-29.338c-6.967 0-12.636 5.666-12.636 12.631v9.253h-9.297c-6.967 0-12.635 5.679-12.635 12.659v29.311c0 6.98 5.668 12.659 12.635 12.659h9.297v9.252c0 6.98 5.668 12.659 12.636 12.659h29.338c6.983 0 12.664-5.679 12.664-12.659v-9.252h9.269c6.983 0 12.664-5.679 12.664-12.659v-29.311c0-6.98-5.681-12.659-12.664-12.659h-9.269v-9.253c0-6.965-5.681-12.631-12.664-12.631zm19.597 36.884v24.628h-14.433c-4.142 0-7.5 3.358-7.5 7.5v14.412h-24.638v-14.412c0-4.142-3.358-7.5-7.5-7.5h-14.433v-24.628h14.433c4.142 0 7.5-3.358 7.5-7.5v-14.384h24.638v14.384c0 4.142 3.358 7.5 7.5 7.5z"/><path d="m246.367 441.271h-71.842c-4.142 0-7.5 3.358-7.5 7.5s3.358 7.5 7.5 7.5h71.842c4.142 0 7.5-3.358 7.5-7.5s-3.358-7.5-7.5-7.5z"/><path d="m246.367 409.183h-71.842c-4.142 0-7.5 3.358-7.5 7.5s3.358 7.5 7.5 7.5h71.842c4.142 0 7.5-3.358 7.5-7.5s-3.358-7.5-7.5-7.5z"/><path d="m308.42 392.458c-4.142 0-7.5 3.358-7.5 7.5v81.071c0 8.807-7.175 15.971-15.994 15.971h-148.961c-8.803 0-15.965-7.165-15.965-15.971v-191.084c0-4.142-3.358-7.5-7.5-7.5s-7.5 3.358-7.5 7.5v191.084c0 17.077 13.891 30.971 30.965 30.971h148.962c17.09 0 30.994-13.894 30.994-30.971v-81.071c-.001-4.142-3.358-7.5-7.501-7.5z"/><path d="m286.752 130.083v-18.949c0-11.075-9.003-20.085-20.07-20.085h-14.319v-51.121c0-9.293-7.565-16.854-16.863-16.854h-50.108c-9.283 0-16.835 7.561-16.835 16.854v51.121h-14.348c-11.066 0-20.07 9.01-20.07 20.085v18.949c-16.227.948-29.14 14.448-29.14 30.913v94.337c0 4.142 3.358 7.5 7.5 7.5s7.5-3.358 7.5-7.5v-28.818c7.177-5.416 29.712-19.538 62.204-12.577l2.286.49c7.59 1.629 15.354 3.294 23.188 4.755.857.341 1.789.534 2.768.534.042 0 .082-.006.124-.006 31.44 5.634 63.794 7.495 90.351-9.989v155.595c0 4.142 3.358 7.5 7.5 7.5s7.5-3.358 7.5-7.5v-204.32c0-16.465-12.925-29.965-29.168-30.914zm-103.195-90.155c0-.988.857-1.854 1.835-1.854h50.108c1.01 0 1.863.849 1.863 1.854v16.68h-21.838c-4.142 0-7.5 3.358-7.5 7.5s3.358 7.5 7.5 7.5h21.838v19.441h-53.806zm19.389 163.057c-5.106-1.033-10.218-2.129-15.309-3.221l-2.291-.491c-29.458-6.312-52.212 2.072-65.346 9.439v-47.715c0-8.807 7.162-15.971 15.965-15.971h66.981zm-53.806-72.96v-18.891c0-2.756 2.322-5.085 5.07-5.085h112.473c2.795 0 5.07 2.281 5.07 5.085v18.891zm151.78 60.724c-22.297 20.369-52.019 20.159-82.975 15.027v-60.75h66.981c8.819 0 15.994 7.165 15.994 15.971z"/></g></g></svg>