<svg id="Layer_1" enable-background="new 0 0 512 512" height="512" viewBox="0 0 512 512" width="512" xmlns="http://www.w3.org/2000/svg"><g><g><path clip-rule="evenodd" d="m62.018 92.511-10.018 166.547 10.018 161.576h387.936l11.046-161.576-11.046-166.547-193.954-11.511z" fill="#eff6ff" fill-rule="evenodd"/></g><g><path clip-rule="evenodd" d="m29.542 81h32.477v351.145h-32.477z" fill="#fde588" fill-rule="evenodd"/></g><g><path clip-rule="evenodd" d="m23.738 92.511h464.495c8.956 0 16.266-7.318 16.266-16.255 0-8.938-7.31-16.255-16.266-16.255h-464.495c-8.928-.001-16.238 7.317-16.238 16.254 0 8.938 7.31 16.256 16.238 16.256z" fill="#ffbc85" fill-rule="evenodd"/></g><g><path clip-rule="evenodd" d="m449.954 76.255v360.635h2.622 29.882v-360.635z" fill="#fde588" fill-rule="evenodd"/></g><g><path clip-rule="evenodd" d="m16.484 438.929c0 7.178 5.859 13.071 13.058 13.071h32.477c7.171 0 13.058-5.893 13.058-13.071v-5.223c0-7.178-5.887-13.071-13.058-13.071h-32.477c-7.198 0-13.058 5.893-13.058 13.071z" fill="#ffbc85" fill-rule="evenodd"/></g><g><path clip-rule="evenodd" d="m452.576 420.634c-8.621 0-15.68 7.066-15.68 15.669v2.625c0 7.178 5.887 13.071 13.058 13.071h32.505c7.171 0 13.058-5.893 13.058-13.071v-5.223c0-7.178-5.887-13.071-13.058-13.071z" fill="#ffbc85" fill-rule="evenodd"/></g><g><path clip-rule="evenodd" d="m391.585 92.511c13.755 64.072-19.949 162.414-68.525 224.223-48.603 61.809-85.991 84.964-132.502 103.9h259.395v-328.123z" fill="#d9eeff" fill-rule="evenodd"/></g><g><path clip-rule="evenodd" d="m29.542 92.511h32.477v21.981h-32.477z" fill="#fdd76f" fill-rule="evenodd"/></g><g><path clip-rule="evenodd" d="m449.954 92.511h32.505v21.981h-32.505z" fill="#fdd76f" fill-rule="evenodd"/></g><g><path clip-rule="evenodd" d="m386.981 76.255c0 8.938-7.31 16.255-16.266 16.255h20.87 58.369 32.505 5.775c8.956 0 16.266-7.318 16.266-16.255s-7.31-16.255-16.266-16.255h-117.519c8.956 0 16.266 7.318 16.266 16.255z" fill="#f5a96c" fill-rule="evenodd"/></g><g><path d="m219.275 347.473c1.452 0 2.921-.422 4.212-1.3 29.973-20.392 52.982-41.754 70.343-65.31 21.978-29.819 35.286-64.096 39.556-101.877.466-4.115-2.494-7.829-6.61-8.294-4.1-.472-7.828 2.493-8.294 6.61-9.448 83.604-63.556 129.34-103.432 156.468-3.425 2.33-4.313 6.995-1.982 10.42 1.451 2.133 3.808 3.283 6.207 3.283z"/><path d="m279.094 199.742c1.253-3.948-.932-8.165-4.879-9.418-3.952-1.249-8.164.932-9.418 4.879-10.826 34.108-34.782 66.574-64.081 86.847-3.406 2.357-4.257 7.029-1.9 10.436 1.456 2.104 3.796 3.233 6.175 3.233 1.472 0 2.959-.433 4.261-1.333 32.412-22.429 57.869-56.925 69.842-94.644z"/><path d="m512 76.255c0-13.099-10.662-23.755-23.767-23.755h-464.495c-13.09 0-23.738 10.656-23.738 23.755 0 12.527 9.742 22.814 22.042 23.689v314.629c-7.633 3.007-13.058 10.441-13.058 19.134v5.223c0 11.343 9.222 20.571 20.558 20.571h32.477c11.336 0 20.558-9.229 20.558-20.571v-5.223c0-1.933-.287-3.797-.787-5.571h156.814c4.143 0 7.5-3.357 7.5-7.5s-3.357-7.5-7.5-7.5h-169.085v-313.125h169.085c4.143 0 7.5-3.357 7.5-7.5s-3.357-7.5-7.5-7.5h-214.866c-4.818 0-8.738-3.928-8.738-8.756 0-4.827 3.92-8.755 8.738-8.755h464.495c4.834 0 8.767 3.928 8.767 8.755 0 4.828-3.933 8.756-8.767 8.756h-215.562c-4.143 0-7.5 3.357-7.5 7.5s3.357 7.5 7.5 7.5h169.782v313.124h-169.782c-4.143 0-7.5 3.357-7.5 7.5s3.357 7.5 7.5 7.5h158.217c-.962 2.542-1.492 5.294-1.492 8.169v2.625c0 11.343 9.222 20.571 20.558 20.571h32.505c11.336 0 20.558-9.229 20.558-20.571v-5.223c0-8.693-5.424-16.126-13.058-19.134v-314.631c12.301-.887 22.041-11.168 22.041-23.686zm-444.424 357.451v5.223c0 3.02-2.545 5.571-5.558 5.571h-32.476c-3.064 0-5.558-2.499-5.558-5.571v-5.223c0-3.072 2.493-5.571 5.558-5.571h32.477c3.012 0 5.557 2.552 5.557 5.571zm-13.057-333.695v313.124h-17.477v-313.124zm420.439 0v313.124h-17.505v-313.124zm13.058 338.918c0 3.02-2.545 5.571-5.558 5.571h-32.505c-3.013 0-5.558-2.552-5.558-5.571v-2.625c0-4.504 3.67-8.169 8.181-8.169h29.882c3.013 0 5.558 2.552 5.558 5.571z"/></g></g></svg>